# xmcd
#
# Track frame offsets: 
#        150
#        14817
#        29266
#        45506
#        61177
#        75595
#        90273
#        106132
#        122241
#        137189
#        151598
#        166958
#        182643
#        197732
#        213234
#        226404
#        239179
#        252921
#        266781
#        280713
#        295035
#
# Disc length: 4122 seconds
#
# Revision: 0
# Processed by: cddbd v1.5.2PL0 Copyright (c) Steve Scherf et al.
# Submitted via: ExactAudioCopy v0.95b3
#
DISCID=20101815
DTITLE=Jelly Roll Morton  - Volume 4 1927-1928 Complete Edition
DYEAR=1900
DGENRE=
TTITLE0=Hyena Stomp
TTITLE1=Hyena Stomp
TTITLE2=Billy Goat Stomp
TTITLE3=Billy Got Stomp
TTITLE4=Wild Man Blues
TTITLE5=Wild Man Blues
TTITLE6=Jungle Blues
TTITLE7=Jungle Blues
TTITLE8=Beale Street Blues
TTITLE9=Beale Street Blues
TTITLE10=The Pearls
TTITLE11=The Pearls
TTITLE12=Wolverine Blues
TTITLE13=Wolverine Blues
TTITLE14=Mr. Jelly Lord
TTITLE15=Midnight Mama
TTITLE16=Mr. Jelly Lord
TTITLE17=Sergeant Dunn's Bugle Call Blues
TTITLE18=Ham And Eggs
TTITLE19=Buffalo Blues
TTITLE20=You Need Some Loving
EXTD=
EXTT0=
EXTT1=
EXTT2=
EXTT3=
EXTT4=
EXTT5=
EXTT6=
EXTT7=
EXTT8=
EXTT9=
EXTT10=
EXTT11=
EXTT12=
EXTT13=
EXTT14=
EXTT15=
EXTT16=
EXTT17=
EXTT18=
EXTT19=
EXTT20=
PLAYORDER=
